<svg version="1.2" width="800" height="1050" xmlns="http://www.w3.org/2000/svg" xmlns:xlink="http://www.w3.org/1999/xlink" class="graph"><g class="axis-lines"><line x1="100" x2="800" y1="0" y2="0"></line><line x1="100" x2="800" y1="100" y2="100"></line><line x1="100" x2="800" y1="200" y2="200"></line><line x1="100" x2="800" y1="300" y2="300"></line><line x1="100" x2="800" y1="400" y2="400"></line><line x1="100" x2="800" y1="500" y2="500"></line><line x1="100" x2="800" y1="600" y2="600"></line><line x1="100" x2="800" y1="700" y2="700"></line><line x1="100" x2="800" y1="800" y2="800"></line><line x1="100" x2="800" y1="900" y2="900"></line><line x1="100" x2="800" y1="1000" y2="1000"></line><line x1="100" x2="100" y1="0" y2="1000"></line><line x1="217" x2="217" y1="0" y2="1000"></line><line x1="333" x2="333" y1="0" y2="1000"></line><line x1="450" x2="450" y1="0" y2="1000"></line><line x1="567" x2="567" y1="0" y2="1000"></line><line x1="683" x2="683" y1="0" y2="1000"></line><line x1="800" x2="800" y1="0" y2="1000"></line></g><g class="labels x-labels"><text x="100" y="1020">2021-03-13</text><text x="217" y="1020"> 2021-03-14</text><text x="333" y="1020"> 2021-03-15</text><text x="450" y="1020"> 2021-03-16</text><text x="567" y="1020"> 2021-03-17</text><text x="683" y="1020"> 2021-03-18</text><text x="800" y="1020"> 2021-03-19</text></g><g class="labels y-labels"><text x="80" y="0 " style="alignment-baseline:hanging"> 50000</text><text x="80" y="100 " style="alignment-baseline:hanging">45000</text><text x="80" y="200 " style="alignment-baseline:hanging"> 40000</text><text x="80" y="300 " style="alignment-baseline:hanging">35000</text><text x="80" y="400 " style="alignment-baseline:hanging"> 30000</text><text x="80" y="500 " style="alignment-baseline:hanging"> 25000</text><text x="80" y="600 " style="alignment-baseline:hanging"> 20000</text><text x="80" y="700 " style="alignment-baseline:hanging"> 15000</text><text x="80" y="800 " style="alignment-baseline:hanging"> 10000</text><text x="80" y="900 " style="alignment-baseline:hanging">5000</text></g><g class="headings x-heading"><text x="50%" y="1050">Days</text></g><g class="headings y-heading"><text x="15" y="500" transform="rotate(-90,15,500)">Karma</text></g><polyline class="graphline" points="100,1000 200,790 300,789 400,788 500,787 600,786 700,780 "/></svg>